<svg width="500" height="1000" viewBox="0 0 500 1000" fill="none" xmlns="http://www.w3.org/2000/svg">
<mask id="path-1-inside-1_0_1" fill="white">
<path d="M0 10C0 4.47717 4.47806 -0.010437 9.99979 0.0999756C72.2546 1.34528 133.76 14.2092 191.342 38.0602C252.005 63.1876 307.124 100.017 353.553 146.447C399.983 192.876 436.812 247.995 461.94 308.658C487.067 369.321 500 434.339 500 500C500 565.661 487.067 630.679 461.94 691.342C436.812 752.005 399.983 807.124 353.553 853.553C307.124 899.983 252.004 936.812 191.342 961.94C133.76 985.791 72.2545 998.655 9.99976 999.9C4.478 1000.01 -3.05176e-05 995.523 -3.05176e-05 990L-3.05176e-05 749.488C-3.05176e-05 743.965 4.47928 739.509 9.99731 739.279C38.0344 738.108 65.6746 732.016 91.6479 721.258C120.704 709.222 147.105 691.582 169.343 669.343C191.582 647.105 209.222 620.704 221.258 591.648C233.293 562.592 239.488 531.45 239.488 500C239.488 468.55 233.293 437.408 221.258 408.352C209.222 379.296 191.582 352.895 169.343 330.657C147.105 308.418 120.704 290.778 91.6479 278.742C65.6746 267.984 38.0344 261.893 9.99731 260.721C4.47931 260.491 0 256.035 0 250.512V10Z"/>
</mask>
<path d="M0 10C0 4.47717 4.47806 -0.010437 9.99979 0.0999756C72.2546 1.34528 133.76 14.2092 191.342 38.0602C252.005 63.1876 307.124 100.017 353.553 146.447C399.983 192.876 436.812 247.995 461.94 308.658C487.067 369.321 500 434.339 500 500C500 565.661 487.067 630.679 461.94 691.342C436.812 752.005 399.983 807.124 353.553 853.553C307.124 899.983 252.004 936.812 191.342 961.94C133.76 985.791 72.2545 998.655 9.99976 999.9C4.478 1000.01 -3.05176e-05 995.523 -3.05176e-05 990L-3.05176e-05 749.488C-3.05176e-05 743.965 4.47928 739.509 9.99731 739.279C38.0344 738.108 65.6746 732.016 91.6479 721.258C120.704 709.222 147.105 691.582 169.343 669.343C191.582 647.105 209.222 620.704 221.258 591.648C233.293 562.592 239.488 531.45 239.488 500C239.488 468.55 233.293 437.408 221.258 408.352C209.222 379.296 191.582 352.895 169.343 330.657C147.105 308.418 120.704 290.778 91.6479 278.742C65.6746 267.984 38.0344 261.893 9.99731 260.721C4.47931 260.491 0 256.035 0 250.512V10Z" fill="#2D3338" stroke="#BBF247" stroke-width="152" mask="url(#path-1-inside-1_0_1)"/>
<mask id="path-2-inside-2_0_1" fill="white">
<path d="M0.5 320C0.5 314.477 4.98093 309.973 10.4962 310.262C57.3786 312.724 101.841 332.434 135.204 365.796C170.93 401.522 191 449.976 191 500.5C191 551.024 170.93 599.478 135.204 635.204C101.841 668.566 57.3786 688.276 10.4962 690.738C4.98096 691.027 0.500031 686.523 0.500031 681L0.500015 570.895C0.500015 565.373 5.00755 560.98 10.4549 560.07C22.7805 558.01 34.2538 552.158 43.206 543.206C54.5323 531.88 60.8954 516.518 60.8954 500.5C60.8954 484.482 54.5323 469.12 43.206 457.794C34.2537 448.842 22.7805 442.99 10.4548 440.93C5.00754 440.02 0.5 435.627 0.5 430.105L0.5 320Z"/>
</mask>
<path d="M0.5 320C0.5 314.477 4.98093 309.973 10.4962 310.262C57.3786 312.724 101.841 332.434 135.204 365.796C170.93 401.522 191 449.976 191 500.5C191 551.024 170.93 599.478 135.204 635.204C101.841 668.566 57.3786 688.276 10.4962 690.738C4.98096 691.027 0.500031 686.523 0.500031 681L0.500015 570.895C0.500015 565.373 5.00755 560.98 10.4549 560.07C22.7805 558.01 34.2538 552.158 43.206 543.206C54.5323 531.88 60.8954 516.518 60.8954 500.5C60.8954 484.482 54.5323 469.12 43.206 457.794C34.2537 448.842 22.7805 442.99 10.4548 440.93C5.00754 440.02 0.5 435.627 0.5 430.105L0.5 320Z" fill="#2D3338" stroke="#BBF247" stroke-width="82" mask="url(#path-2-inside-2_0_1)"/>
</svg>
