<svg width="86" height="101" viewBox="0 0 86 101" fill="none" xmlns="http://www.w3.org/2000/svg">
<mask id="path-1-inside-1_5_7" fill="white">
<path d="M35.7205 85.7004C45.0811 85.7004 54.0583 81.9819 60.6772 75.363C67.2962 68.744 71.0146 59.7668 71.0146 50.4062C71.0146 41.0456 67.2962 32.0684 60.6772 25.4495C54.0583 18.8306 45.0811 15.1121 35.7205 15.1121L35.7205 25.66C42.2836 25.66 48.5779 28.2672 53.2187 32.908C57.8595 37.5488 60.4667 43.8431 60.4667 50.4062C60.4667 56.9693 57.8595 63.2636 53.2187 67.9045C48.5779 72.5453 42.2836 75.1525 35.7205 75.1525V85.7004Z"/>
</mask>
<path d="M35.7205 85.7004C45.0811 85.7004 54.0583 81.9819 60.6772 75.363C67.2962 68.744 71.0146 59.7668 71.0146 50.4062C71.0146 41.0456 67.2962 32.0684 60.6772 25.4495C54.0583 18.8306 45.0811 15.1121 35.7205 15.1121L35.7205 25.66C42.2836 25.66 48.5779 28.2672 53.2187 32.908C57.8595 37.5488 60.4667 43.8431 60.4667 50.4062C60.4667 56.9693 57.8595 63.2636 53.2187 67.9045C48.5779 72.5453 42.2836 75.1525 35.7205 75.1525V85.7004Z" fill="white" stroke="#FB6B11" stroke-width="2" mask="url(#path-1-inside-1_5_7)"/>
<ellipse cx="70.8676" cy="50.5069" rx="14.7059" ry="14.7059" transform="rotate(90 70.8676 50.5069)" fill="#FB6B11"/>
<ellipse cx="35.5069" cy="15.2795" rx="14.7059" ry="14.7059" transform="rotate(90 35.5069 15.2795)" fill="#FB6B11"/>
<ellipse cx="35.6402" cy="85.8677" rx="14.7059" ry="14.7059" transform="rotate(90 35.6402 85.8677)" fill="#FB6B11"/>
</svg>
